# xmcd CD database file generated by OrangeCD 6.4
#
# Track frame offsets:
#	183
#	14215
#	28760
#	45503
#	68615
#	86573
#	105308
#	118003
#	135168
#	154838
#	171353
#	187438
#
# Disc length: 2788 seconds
#
# Revision: 1
# Processed by: cddbd v1.5.2PL0 Copyright (c) Steve Scherf et al.
# Submitted via: OrangeCD 6.4
#
DISCID=9f0ae20c
DTITLE=I cugini di campagna - I grandi successi originali
DYEAR=1900
DGENRE=Blues
TTITLE0=Prigioniero
TTITLE1=Quel corpo fragile
TTITLE2=Sessantaquattro anni
TTITLE3=Sogno
TTITLE4=Solo con te
TTITLE5=Valeria
TTITLE6=Torna torna torna
TTITLE7=Tu sei tu
TTITLE8=Tu Tu Tu
TTITLE9=Un debole respiro
TTITLE10=Un'altra donna
TTITLE11=Stupidi
EXTD=
EXTT0=
EXTT1=
EXTT2=
EXTT3=
EXTT4=
EXTT5=
EXTT6=
EXTT7=
EXTT8=
EXTT9=
EXTT10=
EXTT11=
PLAYORDER=
